<svg width="24" height="30" viewBox="0 0 24 30" fill="none" xmlns="http://www.w3.org/2000/svg">
<g clip-path="url(#clip0_354_763)">
<path d="M13.039 29.1638H0.831169V23.3101C0.831169 18.554 4.67532 14.6864 9.4026 14.6864C12.6753 14.6864 15.5844 16.5157 17.039 19.4425C17.1429 19.6516 17.4026 19.7561 17.6104 19.6516C17.8182 19.547 17.8701 19.2857 17.8182 19.0767C16.5714 16.6202 14.4416 14.8955 11.8961 14.216C14.6494 13.1707 16.5714 10.5052 16.5714 7.36934C16.5195 3.29268 13.2468 0 9.19481 0C5.19481 0 1.92208 3.29268 1.92208 7.36934C1.92208 10.5575 3.94805 13.2753 6.75325 14.2683C2.85714 15.4181 0 19.0244 0 23.3101V29.5296C0 29.7387 0.207792 29.9477 0.415584 29.9477H13.039C13.2468 29.9477 13.4545 29.7387 13.4545 29.5296C13.4545 29.3206 13.2468 29.1638 13.039 29.1638ZM2.7013 7.36934C2.7013 3.76307 5.61039 0.836237 9.19481 0.836237C12.7792 0.836237 15.6883 3.76307 15.6883 7.36934C15.6883 10.9756 12.7792 13.9024 9.19481 13.9024C5.61039 13.9024 2.7013 10.9756 2.7013 7.36934Z" fill="#272525"/>
<path d="M23.8442 21.324C23.6883 21.1673 23.4286 21.1673 23.2727 21.3763L16.8312 28.7979L15.1169 25.662C15.013 25.453 14.7533 25.4007 14.5455 25.5052C14.3377 25.6098 14.2857 25.8711 14.3896 26.0801L16.4156 29.6864C16.4675 29.7909 16.6234 29.8955 16.7273 29.8955H16.7792C16.8831 29.8955 16.987 29.8432 17.0909 29.7387L23.8961 21.899C24 21.7422 24 21.4808 23.8442 21.324Z" fill="#272525"/>
</g>
<defs>
<clipPath id="clip0_354_763">
<rect width="24" height="30" fill="white"/>
</clipPath>
</defs>
</svg>
